<?xml version="1.0" encoding="UTF-8"?>
<svg id="Layer_2" data-name="Layer 2" xmlns="http://www.w3.org/2000/svg" viewBox="0 0 1667.6 560.55">
  <defs>
    <style>
      .cls-1 {
        fill: #f5f5f5;
      }

      .cls-1, .cls-2 {
        stroke-width: 0px;
      }

      .cls-2 {
        fill: #f4e300;
      }
    </style>
  </defs>
  <g id="Layer_1-2" data-name="Layer 1">
    <g>
      <polygon class="cls-1" points="46.76 138.93 46.76 248.04 0 248.04 0 14.57 46.76 14.57 46.76 92.17 111.89 92.17 111.89 14.57 158.65 14.57 158.65 248.04 111.89 248.04 111.89 138.93 46.76 138.93"/>
      <path class="cls-1" d="m251.85,137.54c-4.62,0-8.89.92-12.82,2.77-3.93,1.62-7.39,3.93-10.39,6.93-2.77,2.77-5.08,6.24-6.93,10.39-1.62,3.93-2.42,8.08-2.42,12.47,0,9.01,3.12,16.74,9.35,23.21,6.47,6.24,14.2,9.35,23.21,9.35,4.39,0,8.54-.81,12.47-2.42,4.16-1.85,7.62-4.16,10.39-6.93,3-3,5.31-6.47,6.93-10.39,1.85-3.93,2.77-8.2,2.77-12.82s-.92-8.54-2.77-12.47c-1.62-4.16-3.93-7.62-6.93-10.39-2.77-3-6.24-5.31-10.39-6.93-3.93-1.85-8.08-2.77-12.47-2.77Zm-42.95,99.07c-11.55-7.39-20.55-16.86-27.02-28.4-6.24-11.78-9.35-24.48-9.35-38.1s3.23-26.21,9.7-37.76c6.47-11.78,15.36-21.36,26.67-28.75,11.32-7.39,23.67-11.55,37.06-12.47,13.39-1.15,26.21,1.04,38.45,6.58v-5.54h46.76v155.88h-46.76v-5.54c-12.47,5.54-25.4,7.74-38.8,6.58-13.16-.92-25.4-5.08-36.72-12.47Z"/>
      <path class="cls-1" d="m427.91,137.54c-4.62,0-8.89.92-12.82,2.77-3.93,1.62-7.39,3.93-10.39,6.93-2.77,2.77-5.08,6.24-6.93,10.39-1.62,3.93-2.42,8.08-2.42,12.47,0,9.01,3.12,16.74,9.35,23.21,6.47,6.24,14.2,9.35,23.21,9.35,4.39,0,8.54-.81,12.47-2.42,4.16-1.85,7.62-4.16,10.39-6.93,3-3,5.31-6.47,6.93-10.39,1.85-3.93,2.77-8.2,2.77-12.82s-.92-8.54-2.77-12.47c-1.62-4.16-3.93-7.62-6.93-10.39-2.77-3-6.24-5.31-10.39-6.93-3.93-1.85-8.08-2.77-12.47-2.77Zm-32.56-45.38v5.54c12.47-5.54,25.29-7.74,38.45-6.58,13.39.92,25.75,5.08,37.06,12.47,11.55,7.39,20.44,16.97,26.67,28.75,6.47,11.55,9.7,24.13,9.7,37.76s-3.23,26.33-9.7,38.1c-6.24,11.78-15.13,21.36-26.67,28.75-11.32,7.39-23.67,11.55-37.06,12.47-13.16.92-25.98-1.39-38.45-6.93v51.96h-46.76V92.17h46.76Z"/>
      <path class="cls-1" d="m600.51,137.54c-4.62,0-8.89.92-12.82,2.77-3.93,1.62-7.39,3.93-10.39,6.93-2.77,2.77-5.08,6.24-6.93,10.39-1.62,3.93-2.42,8.08-2.42,12.47,0,9.01,3.12,16.74,9.35,23.21,6.47,6.24,14.2,9.35,23.21,9.35,4.39,0,8.54-.81,12.47-2.42,4.16-1.85,7.62-4.16,10.39-6.93,3-3,5.31-6.47,6.93-10.39,1.85-3.93,2.77-8.2,2.77-12.82s-.92-8.54-2.77-12.47c-1.62-4.16-3.93-7.62-6.93-10.39-2.77-3-6.24-5.31-10.39-6.93-3.93-1.85-8.08-2.77-12.47-2.77Zm-32.56-45.38v5.54c12.47-5.54,25.29-7.74,38.45-6.58,13.39.92,25.75,5.08,37.06,12.47,11.55,7.39,20.44,16.97,26.67,28.75,6.47,11.55,9.7,24.13,9.7,37.76s-3.23,26.33-9.7,38.1c-6.24,11.78-15.13,21.36-26.67,28.75-11.32,7.39-23.67,11.55-37.06,12.47-13.16.92-25.98-1.39-38.45-6.93v51.96h-46.76V92.17h46.76Z"/>
      <path class="cls-1" d="m805.68,242.5c-12.47,5.54-25.4,7.74-38.8,6.58-13.16-.92-25.4-5.08-36.72-12.47-11.55-7.39-20.55-16.86-27.02-28.4-6.24-11.78-9.35-24.48-9.35-38.1v-77.94h46.76v77.94c0,9.01,3.12,16.74,9.35,23.21,6.47,6.24,14.2,9.35,23.21,9.35,4.39,0,8.54-.81,12.47-2.42,4.16-1.85,7.62-4.16,10.39-6.93,3-3,5.31-6.47,6.93-10.39,1.85-3.93,2.77-8.2,2.77-12.82v-77.94h46.76v154.15c0,11.08-2.08,21.36-6.24,30.83-4.16,9.7-9.81,18.13-16.97,25.29-7.16,7.16-15.59,12.82-25.29,16.97-9.47,4.16-19.74,6.24-30.83,6.24v-46.76c4.39,0,8.54-.92,12.47-2.77,4.16-1.62,7.62-3.93,10.39-6.93,3-2.77,5.31-6.12,6.93-10.05,1.85-3.93,2.77-8.2,2.77-12.82v-3.81Z"/>
      <path class="cls-1" d="m984.62,227.95c-15.93-11.08-28.4-25.06-37.41-41.91-8.78-17.09-13.16-35.33-13.16-54.73s4.39-37.87,13.16-54.73c9.01-17.09,21.48-31.18,37.41-42.26,15.93-11.08,33.37-17.9,52.31-20.44,18.94-2.54,37.53-.46,55.77,6.24v51.96c-11.08-7.39-23.21-11.43-36.37-12.12-13.16-.92-25.63,1.73-37.41,7.97-11.78,6.24-21.13,15.01-28.06,26.33-6.7,11.32-10.05,23.67-10.05,37.06s3.35,25.52,10.05,37.06c6.93,11.32,16.28,20.09,28.06,26.33,11.78,6,24.25,8.66,37.41,7.97,13.16-.69,25.29-4.85,36.37-12.47v51.96c-18.24,6.7-36.83,8.78-55.77,6.24s-36.37-9.35-52.31-20.44Z"/>
      <rect class="cls-1" x="1112.83" width="46.76" height="248.04"/>
      <path class="cls-1" d="m1204.67,20.18c6.93,0,12.82,2.42,17.67,7.27,4.85,4.85,7.27,10.74,7.27,17.67s-2.42,12.82-7.27,17.67c-4.85,4.85-10.74,7.27-17.67,7.27s-12.82-2.42-17.67-7.27c-4.85-4.85-7.27-10.74-7.27-17.67s2.42-12.82,7.27-17.67c4.85-4.85,10.74-7.27,17.67-7.27Z"/>
      <rect class="cls-1" x="1181.46" y="92.17" width="46.42" height="155.88"/>
      <path class="cls-1" d="m1340.66,142.74c-5.08-3.23-10.62-4.97-16.63-5.2-6-.23-11.66,1.04-16.97,3.81-5.31,3-9.47,7.04-12.47,12.12-3,5.08-4.5,10.62-4.5,16.63,8.31-4.62,16.63-9.12,24.94-13.51,8.54-4.62,17.09-9.24,25.63-13.86Zm-97.34,27.37c0-9.7,1.62-18.94,4.85-27.71,3.46-9.01,8.2-16.97,14.2-23.9,6.24-7.16,13.39-13.05,21.48-17.67,8.31-4.62,17.32-7.62,27.02-9.01,9.7-1.39,19.17-1.04,28.4,1.04,9.24,1.85,17.78,5.2,25.63,10.05,7.85,4.85,14.66,11.08,20.44,18.71,6,7.39,10.39,15.82,13.16,25.29-15.7,8.31-31.29,16.74-46.76,25.29-15.47,8.31-31.18,16.74-47.11,25.29,3.93,2.54,8.08,4.16,12.47,4.85,4.62.69,9.01.58,13.16-.35,4.16-1.15,8.08-3,11.78-5.54,3.69-2.54,6.7-5.89,9.01-10.05,8.08,1.15,15.93,2.31,23.55,3.46,7.85,1.15,15.82,2.31,23.9,3.46-2.77,9.47-7.16,18.01-13.16,25.63-5.77,7.39-12.59,13.51-20.44,18.36-7.85,4.85-16.4,8.31-25.63,10.39-9.24,2.08-18.71,2.42-28.4,1.04-9.7-1.39-18.71-4.39-27.02-9.01-8.08-4.85-15.24-10.74-21.48-17.67-6-7.16-10.74-15.13-14.2-23.9-3.23-9.01-4.85-18.36-4.85-28.06Z"/>
      <path class="cls-1" d="m1524.17,248.04v-77.94c0-4.39-.92-8.54-2.77-12.47-1.62-4.16-3.93-7.62-6.93-10.39-2.77-3-6.24-5.31-10.39-6.93-3.93-1.85-8.08-2.77-12.47-2.77-4.62,0-8.89.92-12.82,2.77-3.93,1.62-7.39,3.93-10.39,6.93-2.77,2.77-5.08,6.24-6.93,10.39-1.62,3.93-2.42,8.08-2.42,12.47v77.94h-46.76V92.17h46.76v5.54c12.47-5.54,25.29-7.74,38.45-6.58,13.39.92,25.75,5.08,37.06,12.47,11.55,7.39,20.44,16.97,26.67,28.75,6.47,11.55,9.7,24.13,9.7,37.76v77.94h-46.76Z"/>
      <path class="cls-1" d="m1635.04,138.93v31.18c0,9.01,3.12,16.74,9.35,23.21,6.47,6.24,14.2,9.35,23.21,9.35v46.76c-10.85,0-21.13-2.08-30.83-6.24-9.7-4.16-18.13-9.81-25.29-16.97-7.16-7.16-12.82-15.47-16.97-24.94-4.16-9.7-6.24-20.09-6.24-31.18V45.75h46.76v46.42h32.56v46.76h-32.56Z"/>
      <path class="cls-2" d="m201.67,352.33c35.15,128.48,145.12,196.65,258.65,206.85,112.92,10.15,235.94-36.23,301.88-143.44l-59.01-36.29c-49.74,80.88-144.98,118.98-236.67,110.74-91.08-8.18-172.07-61.26-198.03-156.13l-66.82,18.28Zm560.53,63.41l18.15-29.51-59.01-36.29-18.15,29.51,59.01,36.29Zm-493.71-81.69l-9.14-33.41-66.82,18.28,9.14,33.41,66.82-18.28Z"/>
    </g>
  </g>
</svg>